<svg width="258" height="290" viewBox="0 0 258 290" fill="none" xmlns="http://www.w3.org/2000/svg">
<path fill-rule="evenodd" clip-rule="evenodd" d="M128 244C195.379 244 250 189.379 250 122C250 54.6212 195.379 0 128 0C60.6213 0 6 54.6212 6 122C6 189.379 60.6213 244 128 244ZM128 225C184.885 225 231 178.885 231 122C231 65.1146 184.885 19 128 19C71.1147 19 25 65.1146 25 122C25 178.885 71.1147 225 128 225Z" fill="#DC9E82"/>
<path fill-rule="evenodd" clip-rule="evenodd" d="M161.285 38.8679C152.583 35.714 143.234 34 133.5 34C86.8319 34 49 73.3989 49 122C49 170.601 86.8319 210 133.5 210C142.861 210 151.867 208.415 160.283 205.488C131.63 186.858 113 156.626 113 122.5C113 87.9773 132.065 57.4408 161.285 38.8679Z" fill="#DC9E82"/>
<rect x="157.92" y="137" width="31" height="31" transform="rotate(45 157.92 137)" fill="#DC9E82"/>
<rect x="194.92" y="100" width="31" height="31" transform="rotate(45 194.92 100)" fill="#DC9E82"/>
<rect x="157.92" y="62" width="31" height="31" transform="rotate(45 157.92 62)" fill="#DC9E82"/>
<path d="M8.51829 289H0.0424362V262.818H8.78675C11.3521 262.818 13.5552 263.342 15.3961 264.391C17.237 265.43 18.6476 266.926 19.6277 268.878C20.6163 270.821 21.1106 273.152 21.1106 275.871C21.1106 278.598 20.612 280.942 19.6149 282.902C18.6262 284.862 17.1944 286.371 15.3194 287.428C13.4444 288.476 11.1774 289 8.51829 289ZM3.99272 285.548H8.30096C10.2953 285.548 11.9529 285.173 13.274 284.423C14.595 283.665 15.5836 282.57 16.2399 281.138C16.8961 279.697 17.2243 277.942 17.2243 275.871C17.2243 273.817 16.8961 272.074 16.2399 270.642C15.5922 269.21 14.6248 268.124 13.3379 267.382C12.051 266.641 10.4529 266.27 8.54386 266.27H3.99272V285.548ZM26.0229 289V262.818H35.3553C37.3837 262.818 39.0669 263.168 40.405 263.866C41.7516 264.565 42.7573 265.533 43.4221 266.768C44.0868 267.996 44.4192 269.415 44.4192 271.026C44.4192 272.628 44.0826 274.038 43.4093 275.257C42.7445 276.467 41.7388 277.409 40.3922 278.082C39.0542 278.756 37.3709 279.092 35.3425 279.092H28.2729V275.692H34.9846C36.263 275.692 37.3027 275.509 38.1039 275.142C38.9135 274.776 39.5059 274.243 39.8809 273.544C40.2559 272.845 40.4434 272.006 40.4434 271.026C40.4434 270.037 40.2516 269.18 39.8681 268.456C39.4931 267.732 38.9007 267.178 38.0911 266.794C37.29 266.402 36.2374 266.206 34.9334 266.206H29.9732V289H26.0229ZM38.9476 277.188L45.4164 289H40.9164L34.5755 277.188H38.9476ZM49.226 289V262.818H65.6408V266.219H53.1763V274.196H64.7843V277.584H53.1763V285.599H65.7942V289H49.226ZM73.1291 289H68.9359L78.3578 262.818H82.9217L92.3436 289H88.1504L80.7484 267.574H80.5439L73.1291 289ZM73.8322 278.747H87.4345V282.071H73.8322V278.747ZM96.1245 262.818H100.919L109.254 283.17H109.561L117.896 262.818H122.69V289H118.931V270.054H118.688L110.967 288.962H107.847L100.126 270.041H99.883V289H96.1245V262.818ZM142.713 269.696C142.577 268.486 142.014 267.548 141.025 266.884C140.037 266.21 138.792 265.874 137.292 265.874C136.219 265.874 135.29 266.044 134.506 266.385C133.721 266.717 133.112 267.178 132.677 267.766C132.251 268.345 132.038 269.006 132.038 269.747C132.038 270.369 132.183 270.906 132.473 271.358C132.771 271.81 133.159 272.189 133.636 272.496C134.122 272.794 134.642 273.045 135.196 273.25C135.75 273.446 136.282 273.608 136.794 273.736L139.351 274.401C140.186 274.605 141.042 274.882 141.92 275.232C142.798 275.581 143.612 276.041 144.362 276.612C145.112 277.183 145.717 277.891 146.177 278.734C146.646 279.578 146.881 280.588 146.881 281.764C146.881 283.247 146.497 284.564 145.73 285.714C144.971 286.865 143.868 287.773 142.419 288.438C140.979 289.102 139.236 289.435 137.19 289.435C135.23 289.435 133.534 289.124 132.102 288.501C130.67 287.879 129.55 286.997 128.74 285.855C127.93 284.705 127.483 283.341 127.398 281.764H131.361C131.437 282.71 131.744 283.499 132.281 284.129C132.827 284.751 133.521 285.216 134.365 285.523C135.217 285.821 136.15 285.97 137.165 285.97C138.281 285.97 139.274 285.795 140.143 285.446C141.021 285.088 141.711 284.594 142.214 283.963C142.717 283.324 142.969 282.578 142.969 281.726C142.969 280.95 142.747 280.315 142.304 279.821C141.869 279.327 141.277 278.918 140.527 278.594C139.785 278.27 138.946 277.984 138.008 277.737L134.915 276.893C132.818 276.322 131.156 275.483 129.929 274.375C128.71 273.267 128.101 271.801 128.101 269.977C128.101 268.469 128.51 267.152 129.328 266.027C130.146 264.902 131.254 264.028 132.652 263.406C134.05 262.776 135.626 262.46 137.382 262.46C139.155 262.46 140.719 262.771 142.074 263.393C143.437 264.016 144.511 264.872 145.295 265.963C146.079 267.045 146.488 268.29 146.523 269.696H142.713ZM175.408 269.696C175.272 268.486 174.709 267.548 173.721 266.884C172.732 266.21 171.488 265.874 169.988 265.874C168.914 265.874 167.985 266.044 167.201 266.385C166.417 266.717 165.807 267.178 165.373 267.766C164.947 268.345 164.733 269.006 164.733 269.747C164.733 270.369 164.878 270.906 165.168 271.358C165.466 271.81 165.854 272.189 166.331 272.496C166.817 272.794 167.337 273.045 167.891 273.25C168.445 273.446 168.978 273.608 169.489 273.736L172.046 274.401C172.881 274.605 173.738 274.882 174.616 275.232C175.493 275.581 176.307 276.041 177.057 276.612C177.807 277.183 178.412 277.891 178.873 278.734C179.341 279.578 179.576 280.588 179.576 281.764C179.576 283.247 179.192 284.564 178.425 285.714C177.667 286.865 176.563 287.773 175.114 288.438C173.674 289.102 171.931 289.435 169.885 289.435C167.925 289.435 166.229 289.124 164.797 288.501C163.366 287.879 162.245 286.997 161.435 285.855C160.626 284.705 160.178 283.341 160.093 281.764H164.056C164.133 282.71 164.439 283.499 164.976 284.129C165.522 284.751 166.216 285.216 167.06 285.523C167.912 285.821 168.846 285.97 169.86 285.97C170.976 285.97 171.969 285.795 172.839 285.446C173.716 285.088 174.407 284.594 174.91 283.963C175.412 283.324 175.664 282.578 175.664 281.726C175.664 280.95 175.442 280.315 174.999 279.821C174.564 279.327 173.972 278.918 173.222 278.594C172.481 278.27 171.641 277.984 170.704 277.737L167.61 276.893C165.513 276.322 163.851 275.483 162.624 274.375C161.405 273.267 160.796 271.801 160.796 269.977C160.796 268.469 161.205 267.152 162.023 266.027C162.841 264.902 163.949 264.028 165.347 263.406C166.745 262.776 168.322 262.46 170.077 262.46C171.85 262.46 173.414 262.771 174.769 263.393C176.133 264.016 177.206 264.872 177.991 265.963C178.775 267.045 179.184 268.29 179.218 269.696H175.408ZM184.296 289V262.818H188.247V274.196H201.299V262.818H205.262V289H201.299V277.584H188.247V289H184.296ZM233.758 275.909C233.758 278.705 233.247 281.108 232.224 283.119C231.201 285.122 229.799 286.665 228.018 287.747C226.245 288.821 224.23 289.358 221.971 289.358C219.704 289.358 217.68 288.821 215.899 287.747C214.126 286.665 212.728 285.118 211.705 283.107C210.683 281.095 210.171 278.696 210.171 275.909C210.171 273.114 210.683 270.714 211.705 268.712C212.728 266.7 214.126 265.158 215.899 264.084C217.68 263.001 219.704 262.46 221.971 262.46C224.23 262.46 226.245 263.001 228.018 264.084C229.799 265.158 231.201 266.7 232.224 268.712C233.247 270.714 233.758 273.114 233.758 275.909ZM229.846 275.909C229.846 273.778 229.501 271.984 228.811 270.527C228.129 269.061 227.191 267.953 225.998 267.203C224.813 266.445 223.471 266.065 221.971 266.065C220.463 266.065 219.116 266.445 217.931 267.203C216.747 267.953 215.809 269.061 215.119 270.527C214.437 271.984 214.096 273.778 214.096 275.909C214.096 278.04 214.437 279.838 215.119 281.304C215.809 282.761 216.747 283.869 217.931 284.628C219.116 285.378 220.463 285.753 221.971 285.753C223.471 285.753 224.813 285.378 225.998 284.628C227.191 283.869 228.129 282.761 228.811 281.304C229.501 279.838 229.846 278.04 229.846 275.909ZM238.683 289V262.818H248.015C250.052 262.818 251.74 263.189 253.078 263.93C254.416 264.672 255.417 265.686 256.082 266.973C256.747 268.251 257.079 269.692 257.079 271.294C257.079 272.905 256.743 274.354 256.069 275.641C255.405 276.919 254.399 277.933 253.052 278.683C251.714 279.425 250.031 279.795 248.003 279.795H241.585V276.446H247.645C248.932 276.446 249.976 276.224 250.777 275.781C251.578 275.33 252.166 274.716 252.541 273.94C252.916 273.165 253.104 272.283 253.104 271.294C253.104 270.305 252.916 269.428 252.541 268.661C252.166 267.893 251.574 267.293 250.764 266.858C249.963 266.423 248.906 266.206 247.594 266.206H242.633V289H238.683Z" fill="#DC9E82"/>
</svg>
